<svg width="78.750000" height="141.750000" xmlns="http://www.w3.org/2000/svg" version="1.1">
    <rect x="31.500000" y="0.000000" width="5.250000" height="5.250000" fill="#552D1B"   />
    <rect x="36.750000" y="0.000000" width="5.250000" height="5.250000" fill="#552D1B"   />
    <rect x="42.000000" y="0.000000" width="5.250000" height="5.250000" fill="#552D1B"   />
    <rect x="47.250000" y="0.000000" width="5.250000" height="5.250000" fill="#552D1B"   />
    <rect x="5.250000" y="5.250000" width="5.250000" height="5.250000" fill="#D2BB8D"   />
    <rect x="21.000000" y="5.250000" width="5.250000" height="5.250000" fill="#552D1B"   />
    <rect x="26.250000" y="5.250000" width="5.250000" height="5.250000" fill="#552D1B"   />
    <rect x="31.500000" y="5.250000" width="5.250000" height="5.250000" fill="#552D1B"   />
    <rect x="36.750000" y="5.250000" width="5.250000" height="5.250000" fill="#552D1B"   />
    <rect x="42.000000" y="5.250000" width="5.250000" height="5.250000" fill="#552D1B"   />
    <rect x="47.250000" y="5.250000" width="5.250000" height="5.250000" fill="#552D1B"   />
    <rect x="52.500000" y="5.250000" width="5.250000" height="5.250000" fill="#552D1B"   />
    <rect x="57.750000" y="5.250000" width="5.250000" height="5.250000" fill="#552D1B"   />
    <rect x="68.250000" y="5.250000" width="5.250000" height="5.250000" fill="#D2BB8D"   />
    <rect x="5.250000" y="10.500000" width="5.250000" height="5.250000" fill="#D2BB8D"   />
    <rect x="10.500000" y="10.500000" width="5.250000" height="5.250000" fill="#552D1B"   />
    <rect x="15.750000" y="10.500000" width="5.250000" height="5.250000" fill="#552D1B"   />
    <rect x="21.000000" y="10.500000" width="5.250000" height="5.250000" fill="#552D1B"   />
    <rect x="26.250000" y="10.500000" width="5.250000" height="5.250000" fill="#552D1B"   />
    <rect x="31.500000" y="10.500000" width="5.250000" height="5.250000" fill="#552D1B"   />
    <rect x="36.750000" y="10.500000" width="5.250000" height="5.250000" fill="#552D1B"   />
    <rect x="42.000000" y="10.500000" width="5.250000" height="5.250000" fill="#552D1B"   />
    <rect x="47.250000" y="10.500000" width="5.250000" height="5.250000" fill="#552D1B"   />
    <rect x="52.500000" y="10.500000" width="5.250000" height="5.250000" fill="#552D1B"   />
    <rect x="57.750000" y="10.500000" width="5.250000" height="5.250000" fill="#552D1B"   />
    <rect x="63.000000" y="10.500000" width="5.250000" height="5.250000" fill="#552D1B"   />
    <rect x="68.250000" y="10.500000" width="5.250000" height="5.250000" fill="#D2BB8D"   />
    <rect x="5.250000" y="15.750000" width="5.250000" height="5.250000" fill="#D2BB8D"   />
    <rect x="10.500000" y="15.750000" width="5.250000" height="5.250000" fill="#552D1B"   />
    <rect x="15.750000" y="15.750000" width="5.250000" height="5.250000" fill="#552D1B"   />
    <rect x="21.000000" y="15.750000" width="5.250000" height="5.250000" fill="#552D1B"   />
    <rect x="26.250000" y="15.750000" width="5.250000" height="5.250000" fill="#552D1B"   />
    <rect x="31.500000" y="15.750000" width="5.250000" height="5.250000" fill="#552D1B"   />
    <rect x="36.750000" y="15.750000" width="5.250000" height="5.250000" fill="#552D1B"   />
    <rect x="42.000000" y="15.750000" width="5.250000" height="5.250000" fill="#552D1B"   />
    <rect x="47.250000" y="15.750000" width="5.250000" height="5.250000" fill="#552D1B"   />
    <rect x="52.500000" y="15.750000" width="5.250000" height="5.250000" fill="#552D1B"   />
    <rect x="57.750000" y="15.750000" width="5.250000" height="5.250000" fill="#552D1B"   />
    <rect x="63.000000" y="15.750000" width="5.250000" height="5.250000" fill="#552D1B"   />
    <rect x="68.250000" y="15.750000" width="5.250000" height="5.250000" fill="#D2BB8D"   />
    <rect x="5.250000" y="21.000000" width="5.250000" height="5.250000" fill="#D2BB8D"   />
    <rect x="10.500000" y="21.000000" width="5.250000" height="5.250000" fill="#552D1B"   />
    <rect x="15.750000" y="21.000000" width="5.250000" height="5.250000" fill="#552D1B"   />
    <rect x="21.000000" y="21.000000" width="5.250000" height="5.250000" fill="#552D1B"   />
    <rect x="26.250000" y="21.000000" width="5.250000" height="5.250000" fill="#552D1B"   />
    <rect x="31.500000" y="21.000000" width="5.250000" height="5.250000" fill="#552D1B"   />
    <rect x="36.750000" y="21.000000" width="5.250000" height="5.250000" fill="#552D1B"   />
    <rect x="42.000000" y="21.000000" width="5.250000" height="5.250000" fill="#552D1B"   />
    <rect x="47.250000" y="21.000000" width="5.250000" height="5.250000" fill="#552D1B"   />
    <rect x="52.500000" y="21.000000" width="5.250000" height="5.250000" fill="#552D1B"   />
    <rect x="57.750000" y="21.000000" width="5.250000" height="5.250000" fill="#552D1B"   />
    <rect x="63.000000" y="21.000000" width="5.250000" height="5.250000" fill="#D2BB8D"   />
    <rect x="68.250000" y="21.000000" width="5.250000" height="5.250000" fill="#D2BB8D"   />
    <rect x="5.250000" y="26.250000" width="5.250000" height="5.250000" fill="#552D1B"   />
    <rect x="10.500000" y="26.250000" width="5.250000" height="5.250000" fill="#552D1B"   />
    <rect x="15.750000" y="26.250000" width="5.250000" height="5.250000" fill="#552D1B"   />
    <rect x="21.000000" y="26.250000" width="5.250000" height="5.250000" fill="#552D1B"   />
    <rect x="26.250000" y="26.250000" width="5.250000" height="5.250000" fill="#552D1B"   />
    <rect x="31.500000" y="26.250000" width="5.250000" height="5.250000" fill="#552D1B"   />
    <rect x="36.750000" y="26.250000" width="5.250000" height="5.250000" fill="#552D1B"   />
    <rect x="42.000000" y="26.250000" width="5.250000" height="5.250000" fill="#552D1B"   />
    <rect x="47.250000" y="26.250000" width="5.250000" height="5.250000" fill="#552D1B"   />
    <rect x="52.500000" y="26.250000" width="5.250000" height="5.250000" fill="#552D1B"   />
    <rect x="57.750000" y="26.250000" width="5.250000" height="5.250000" fill="#552D1B"   />
    <rect x="63.000000" y="26.250000" width="5.250000" height="5.250000" fill="#D2BB8D"   />
    <rect x="68.250000" y="26.250000" width="5.250000" height="5.250000" fill="#D2BB8D"   />
    <rect x="73.500000" y="26.250000" width="5.250000" height="5.250000" fill="#552D1B"   />
    <rect x="5.250000" y="31.500000" width="5.250000" height="5.250000" fill="#552D1B"   />
    <rect x="10.500000" y="31.500000" width="5.250000" height="5.250000" fill="#552D1B"   />
    <rect x="15.750000" y="31.500000" width="5.250000" height="5.250000" fill="#FFFFFF"   />
    <rect x="21.000000" y="31.500000" width="5.250000" height="5.250000" fill="#000000"   />
    <rect x="26.250000" y="31.500000" width="5.250000" height="5.250000" fill="#552D1B"   />
    <rect x="31.500000" y="31.500000" width="5.250000" height="5.250000" fill="#552D1B"   />
    <rect x="36.750000" y="31.500000" width="5.250000" height="5.250000" fill="#552D1B"   />
    <rect x="42.000000" y="31.500000" width="5.250000" height="5.250000" fill="#552D1B"   />
    <rect x="47.250000" y="31.500000" width="5.250000" height="5.250000" fill="#000000"   />
    <rect x="52.500000" y="31.500000" width="5.250000" height="5.250000" fill="#FFFFFF"   />
    <rect x="57.750000" y="31.500000" width="5.250000" height="5.250000" fill="#552D1B"   />
    <rect x="63.000000" y="31.500000" width="5.250000" height="5.250000" fill="#552D1B"   />
    <rect x="68.250000" y="31.500000" width="5.250000" height="5.250000" fill="#552D1B"   />
    <rect x="73.500000" y="31.500000" width="5.250000" height="5.250000" fill="#552D1B"   />
    <rect x="5.250000" y="36.750000" width="5.250000" height="5.250000" fill="#552D1B"   />
    <rect x="10.500000" y="36.750000" width="5.250000" height="5.250000" fill="#552D1B"   />
    <rect x="15.750000" y="36.750000" width="5.250000" height="5.250000" fill="#552D1B"   />
    <rect x="21.000000" y="36.750000" width="5.250000" height="5.250000" fill="#552D1B"   />
    <rect x="26.250000" y="36.750000" width="5.250000" height="5.250000" fill="#552D1B"   />
    <rect x="31.500000" y="36.750000" width="5.250000" height="5.250000" fill="#552D1B"   />
    <rect x="36.750000" y="36.750000" width="5.250000" height="5.250000" fill="#552D1B"   />
    <rect x="42.000000" y="36.750000" width="5.250000" height="5.250000" fill="#552D1B"   />
    <rect x="47.250000" y="36.750000" width="5.250000" height="5.250000" fill="#552D1B"   />
    <rect x="52.500000" y="36.750000" width="5.250000" height="5.250000" fill="#552D1B"   />
    <rect x="57.750000" y="36.750000" width="5.250000" height="5.250000" fill="#552D1B"   />
    <rect x="63.000000" y="36.750000" width="5.250000" height="5.250000" fill="#552D1B"   />
    <rect x="68.250000" y="36.750000" width="5.250000" height="5.250000" fill="#552D1B"   />
    <rect x="73.500000" y="36.750000" width="5.250000" height="5.250000" fill="#552D1B"   />
    <rect x="10.500000" y="42.000000" width="5.250000" height="5.250000" fill="#552D1B"   />
    <rect x="15.750000" y="42.000000" width="5.250000" height="5.250000" fill="#552D1B"   />
    <rect x="21.000000" y="42.000000" width="5.250000" height="5.250000" fill="#552D1B"   />
    <rect x="26.250000" y="42.000000" width="5.250000" height="5.250000" fill="#552D1B"   />
    <rect x="31.500000" y="42.000000" width="5.250000" height="5.250000" fill="#552D1B"   />
    <rect x="36.750000" y="42.000000" width="5.250000" height="5.250000" fill="#552D1B"   />
    <rect x="42.000000" y="42.000000" width="5.250000" height="5.250000" fill="#552D1B"   />
    <rect x="47.250000" y="42.000000" width="5.250000" height="5.250000" fill="#552D1B"   />
    <rect x="52.500000" y="42.000000" width="5.250000" height="5.250000" fill="#552D1B"   />
    <rect x="57.750000" y="42.000000" width="5.250000" height="5.250000" fill="#552D1B"   />
    <rect x="63.000000" y="42.000000" width="5.250000" height="5.250000" fill="#552D1B"   />
    <rect x="68.250000" y="42.000000" width="5.250000" height="5.250000" fill="#552D1B"   />
    <rect x="10.500000" y="47.250000" width="5.250000" height="5.250000" fill="#552D1B"   />
    <rect x="15.750000" y="47.250000" width="5.250000" height="5.250000" fill="#552D1B"   />
    <rect x="21.000000" y="47.250000" width="5.250000" height="5.250000" fill="#552D1B"   />
    <rect x="26.250000" y="47.250000" width="5.250000" height="5.250000" fill="#000000"   />
    <rect x="31.500000" y="47.250000" width="5.250000" height="5.250000" fill="#000000"   />
    <rect x="36.750000" y="47.250000" width="5.250000" height="5.250000" fill="#000000"   />
    <rect x="42.000000" y="47.250000" width="5.250000" height="5.250000" fill="#552D1B"   />
    <rect x="47.250000" y="47.250000" width="5.250000" height="5.250000" fill="#552D1B"   />
    <rect x="52.500000" y="47.250000" width="5.250000" height="5.250000" fill="#552D1B"   />
    <rect x="57.750000" y="47.250000" width="5.250000" height="5.250000" fill="#552D1B"   />
    <rect x="63.000000" y="47.250000" width="5.250000" height="5.250000" fill="#552D1B"   />
    <rect x="68.250000" y="47.250000" width="5.250000" height="5.250000" fill="#552D1B"   />
    <rect x="15.750000" y="52.500000" width="5.250000" height="5.250000" fill="#552D1B"   />
    <rect x="21.000000" y="52.500000" width="5.250000" height="5.250000" fill="#552D1B"   />
    <rect x="26.250000" y="52.500000" width="5.250000" height="5.250000" fill="#000000"   />
    <rect x="31.500000" y="52.500000" width="5.250000" height="5.250000" fill="#000000"   />
    <rect x="36.750000" y="52.500000" width="5.250000" height="5.250000" fill="#000000"   />
    <rect x="42.000000" y="52.500000" width="5.250000" height="5.250000" fill="#552D1B"   />
    <rect x="47.250000" y="52.500000" width="5.250000" height="5.250000" fill="#552D1B"   />
    <rect x="52.500000" y="52.500000" width="5.250000" height="5.250000" fill="#552D1B"   />
    <rect x="57.750000" y="52.500000" width="5.250000" height="5.250000" fill="#552D1B"   />
    <rect x="63.000000" y="52.500000" width="5.250000" height="5.250000" fill="#552D1B"   />
    <rect x="21.000000" y="57.750000" width="5.250000" height="5.250000" fill="#552D1B"   />
    <rect x="26.250000" y="57.750000" width="5.250000" height="5.250000" fill="#552D1B"   />
    <rect x="31.500000" y="57.750000" width="5.250000" height="5.250000" fill="#552D1B"   />
    <rect x="36.750000" y="57.750000" width="5.250000" height="5.250000" fill="#552D1B"   />
    <rect x="42.000000" y="57.750000" width="5.250000" height="5.250000" fill="#552D1B"   />
    <rect x="47.250000" y="57.750000" width="5.250000" height="5.250000" fill="#552D1B"   />
    <rect x="52.500000" y="57.750000" width="5.250000" height="5.250000" fill="#552D1B"   />
    <rect x="57.750000" y="57.750000" width="5.250000" height="5.250000" fill="#552D1B"   />
    <rect x="15.750000" y="63.000000" width="5.250000" height="5.250000" fill="#331E54"   />
    <rect x="21.000000" y="63.000000" width="5.250000" height="5.250000" fill="#331E54"   />
    <rect x="26.250000" y="63.000000" width="5.250000" height="5.250000" fill="#552D1B"   />
    <rect x="31.500000" y="63.000000" width="5.250000" height="5.250000" fill="#552D1B"   />
    <rect x="36.750000" y="63.000000" width="5.250000" height="5.250000" fill="#552D1B"   />
    <rect x="42.000000" y="63.000000" width="5.250000" height="5.250000" fill="#552D1B"   />
    <rect x="47.250000" y="63.000000" width="5.250000" height="5.250000" fill="#331E54"   />
    <rect x="52.500000" y="63.000000" width="5.250000" height="5.250000" fill="#331E54"   />
    <rect x="57.750000" y="63.000000" width="5.250000" height="5.250000" fill="#331E54"   />
    <rect x="5.250000" y="68.250000" width="5.250000" height="5.250000" fill="#552D1B"   />
    <rect x="10.500000" y="68.250000" width="5.250000" height="5.250000" fill="#552D1B"   />
    <rect x="15.750000" y="68.250000" width="5.250000" height="5.250000" fill="#331E54"   />
    <rect x="21.000000" y="68.250000" width="5.250000" height="5.250000" fill="#331E54"   />
    <rect x="26.250000" y="68.250000" width="5.250000" height="5.250000" fill="#552D1B"   />
    <rect x="31.500000" y="68.250000" width="5.250000" height="5.250000" fill="#552D1B"   />
    <rect x="36.750000" y="68.250000" width="5.250000" height="5.250000" fill="#552D1B"   />
    <rect x="42.000000" y="68.250000" width="5.250000" height="5.250000" fill="#552D1B"   />
    <rect x="47.250000" y="68.250000" width="5.250000" height="5.250000" fill="#331E54"   />
    <rect x="52.500000" y="68.250000" width="5.250000" height="5.250000" fill="#331E54"   />
    <rect x="57.750000" y="68.250000" width="5.250000" height="5.250000" fill="#331E54"   />
    <rect x="63.000000" y="68.250000" width="5.250000" height="5.250000" fill="#552D1B"   />
    <rect x="68.250000" y="68.250000" width="5.250000" height="5.250000" fill="#552D1B"   />
    <rect x="0.000000" y="73.500000" width="5.250000" height="5.250000" fill="#552D1B"   />
    <rect x="5.250000" y="73.500000" width="5.250000" height="5.250000" fill="#552D1B"   />
    <rect x="10.500000" y="73.500000" width="5.250000" height="5.250000" fill="#552D1B"   />
    <rect x="15.750000" y="73.500000" width="5.250000" height="5.250000" fill="#331E54"   />
    <rect x="21.000000" y="73.500000" width="5.250000" height="5.250000" fill="#331E54"   />
    <rect x="26.250000" y="73.500000" width="5.250000" height="5.250000" fill="#331E54"   />
    <rect x="31.500000" y="73.500000" width="5.250000" height="5.250000" fill="#552D1B"   />
    <rect x="36.750000" y="73.500000" width="5.250000" height="5.250000" fill="#552D1B"   />
    <rect x="42.000000" y="73.500000" width="5.250000" height="5.250000" fill="#331E54"   />
    <rect x="47.250000" y="73.500000" width="5.250000" height="5.250000" fill="#331E54"   />
    <rect x="52.500000" y="73.500000" width="5.250000" height="5.250000" fill="#331E54"   />
    <rect x="57.750000" y="73.500000" width="5.250000" height="5.250000" fill="#331E54"   />
    <rect x="63.000000" y="73.500000" width="5.250000" height="5.250000" fill="#552D1B"   />
    <rect x="68.250000" y="73.500000" width="5.250000" height="5.250000" fill="#552D1B"   />
    <rect x="73.500000" y="73.500000" width="5.250000" height="5.250000" fill="#552D1B"   />
    <rect x="0.000000" y="78.750000" width="5.250000" height="5.250000" fill="#552D1B"   />
    <rect x="5.250000" y="78.750000" width="5.250000" height="5.250000" fill="#552D1B"   />
    <rect x="10.500000" y="78.750000" width="5.250000" height="5.250000" fill="#552D1B"   />
    <rect x="15.750000" y="78.750000" width="5.250000" height="5.250000" fill="#331E54"   />
    <rect x="21.000000" y="78.750000" width="5.250000" height="5.250000" fill="#331E54"   />
    <rect x="26.250000" y="78.750000" width="5.250000" height="5.250000" fill="#331E54"   />
    <rect x="31.500000" y="78.750000" width="5.250000" height="5.250000" fill="#F4AA00"   />
    <rect x="36.750000" y="78.750000" width="5.250000" height="5.250000" fill="#331E54"   />
    <rect x="42.000000" y="78.750000" width="5.250000" height="5.250000" fill="#331E54"   />
    <rect x="47.250000" y="78.750000" width="5.250000" height="5.250000" fill="#331E54"   />
    <rect x="52.500000" y="78.750000" width="5.250000" height="5.250000" fill="#331E54"   />
    <rect x="57.750000" y="78.750000" width="5.250000" height="5.250000" fill="#331E54"   />
    <rect x="63.000000" y="78.750000" width="5.250000" height="5.250000" fill="#552D1B"   />
    <rect x="68.250000" y="78.750000" width="5.250000" height="5.250000" fill="#552D1B"   />
    <rect x="73.500000" y="78.750000" width="5.250000" height="5.250000" fill="#552D1B"   />
    <rect x="0.000000" y="84.000000" width="5.250000" height="5.250000" fill="#552D1B"   />
    <rect x="5.250000" y="84.000000" width="5.250000" height="5.250000" fill="#552D1B"   />
    <rect x="10.500000" y="84.000000" width="5.250000" height="5.250000" fill="#552D1B"   />
    <rect x="15.750000" y="84.000000" width="5.250000" height="5.250000" fill="#331E54"   />
    <rect x="21.000000" y="84.000000" width="5.250000" height="5.250000" fill="#331E54"   />
    <rect x="26.250000" y="84.000000" width="5.250000" height="5.250000" fill="#331E54"   />
    <rect x="31.500000" y="84.000000" width="5.250000" height="5.250000" fill="#F4AA00"   />
    <rect x="36.750000" y="84.000000" width="5.250000" height="5.250000" fill="#331E54"   />
    <rect x="42.000000" y="84.000000" width="5.250000" height="5.250000" fill="#331E54"   />
    <rect x="47.250000" y="84.000000" width="5.250000" height="5.250000" fill="#331E54"   />
    <rect x="52.500000" y="84.000000" width="5.250000" height="5.250000" fill="#331E54"   />
    <rect x="57.750000" y="84.000000" width="5.250000" height="5.250000" fill="#331E54"   />
    <rect x="63.000000" y="84.000000" width="5.250000" height="5.250000" fill="#552D1B"   />
    <rect x="68.250000" y="84.000000" width="5.250000" height="5.250000" fill="#552D1B"   />
    <rect x="73.500000" y="84.000000" width="5.250000" height="5.250000" fill="#552D1B"   />
    <rect x="5.250000" y="89.250000" width="5.250000" height="5.250000" fill="#552D1B"   />
    <rect x="10.500000" y="89.250000" width="5.250000" height="5.250000" fill="#552D1B"   />
    <rect x="15.750000" y="89.250000" width="5.250000" height="5.250000" fill="#552D1B"   />
    <rect x="21.000000" y="89.250000" width="5.250000" height="5.250000" fill="#000000"   />
    <rect x="26.250000" y="89.250000" width="5.250000" height="5.250000" fill="#331E54"   />
    <rect x="31.500000" y="89.250000" width="5.250000" height="5.250000" fill="#F4AA00"   />
    <rect x="36.750000" y="89.250000" width="5.250000" height="5.250000" fill="#331E54"   />
    <rect x="42.000000" y="89.250000" width="5.250000" height="5.250000" fill="#331E54"   />
    <rect x="47.250000" y="89.250000" width="5.250000" height="5.250000" fill="#331E54"   />
    <rect x="52.500000" y="89.250000" width="5.250000" height="5.250000" fill="#000000"   />
    <rect x="57.750000" y="89.250000" width="5.250000" height="5.250000" fill="#552D1B"   />
    <rect x="63.000000" y="89.250000" width="5.250000" height="5.250000" fill="#552D1B"   />
    <rect x="68.250000" y="89.250000" width="5.250000" height="5.250000" fill="#552D1B"   />
    <rect x="10.500000" y="94.500000" width="5.250000" height="5.250000" fill="#552D1B"   />
    <rect x="15.750000" y="94.500000" width="5.250000" height="5.250000" fill="#552D1B"   />
    <rect x="21.000000" y="94.500000" width="5.250000" height="5.250000" fill="#000000"   />
    <rect x="26.250000" y="94.500000" width="5.250000" height="5.250000" fill="#331E54"   />
    <rect x="31.500000" y="94.500000" width="5.250000" height="5.250000" fill="#F4AA00"   />
    <rect x="36.750000" y="94.500000" width="5.250000" height="5.250000" fill="#F4AA00"   />
    <rect x="42.000000" y="94.500000" width="5.250000" height="5.250000" fill="#F4AA00"   />
    <rect x="47.250000" y="94.500000" width="5.250000" height="5.250000" fill="#331E54"   />
    <rect x="52.500000" y="94.500000" width="5.250000" height="5.250000" fill="#000000"   />
    <rect x="57.750000" y="94.500000" width="5.250000" height="5.250000" fill="#552D1B"   />
    <rect x="63.000000" y="94.500000" width="5.250000" height="5.250000" fill="#552D1B"   />
    <rect x="15.750000" y="99.750000" width="5.250000" height="5.250000" fill="#331E54"   />
    <rect x="21.000000" y="99.750000" width="5.250000" height="5.250000" fill="#331E54"   />
    <rect x="26.250000" y="99.750000" width="5.250000" height="5.250000" fill="#331E54"   />
    <rect x="31.500000" y="99.750000" width="5.250000" height="5.250000" fill="#331E54"   />
    <rect x="36.750000" y="99.750000" width="5.250000" height="5.250000" fill="#331E54"   />
    <rect x="42.000000" y="99.750000" width="5.250000" height="5.250000" fill="#331E54"   />
    <rect x="47.250000" y="99.750000" width="5.250000" height="5.250000" fill="#331E54"   />
    <rect x="52.500000" y="99.750000" width="5.250000" height="5.250000" fill="#331E54"   />
    <rect x="57.750000" y="99.750000" width="5.250000" height="5.250000" fill="#331E54"   />
    <rect x="15.750000" y="105.000000" width="5.250000" height="5.250000" fill="#331E54"   />
    <rect x="21.000000" y="105.000000" width="5.250000" height="5.250000" fill="#331E54"   />
    <rect x="26.250000" y="105.000000" width="5.250000" height="5.250000" fill="#331E54"   />
    <rect x="31.500000" y="105.000000" width="5.250000" height="5.250000" fill="#331E54"   />
    <rect x="36.750000" y="105.000000" width="5.250000" height="5.250000" fill="#331E54"   />
    <rect x="42.000000" y="105.000000" width="5.250000" height="5.250000" fill="#331E54"   />
    <rect x="47.250000" y="105.000000" width="5.250000" height="5.250000" fill="#331E54"   />
    <rect x="52.500000" y="105.000000" width="5.250000" height="5.250000" fill="#331E54"   />
    <rect x="57.750000" y="105.000000" width="5.250000" height="5.250000" fill="#331E54"   />
    <rect x="15.750000" y="110.250000" width="5.250000" height="5.250000" fill="#331E54"   />
    <rect x="21.000000" y="110.250000" width="5.250000" height="5.250000" fill="#331E54"   />
    <rect x="26.250000" y="110.250000" width="5.250000" height="5.250000" fill="#331E54"   />
    <rect x="31.500000" y="110.250000" width="5.250000" height="5.250000" fill="#331E54"   />
    <rect x="36.750000" y="110.250000" width="5.250000" height="5.250000" fill="#331E54"   />
    <rect x="42.000000" y="110.250000" width="5.250000" height="5.250000" fill="#331E54"   />
    <rect x="47.250000" y="110.250000" width="5.250000" height="5.250000" fill="#331E54"   />
    <rect x="52.500000" y="110.250000" width="5.250000" height="5.250000" fill="#331E54"   />
    <rect x="57.750000" y="110.250000" width="5.250000" height="5.250000" fill="#331E54"   />
    <rect x="15.750000" y="115.500000" width="5.250000" height="5.250000" fill="#552D1B"   />
    <rect x="21.000000" y="115.500000" width="5.250000" height="5.250000" fill="#552D1B"   />
    <rect x="26.250000" y="115.500000" width="5.250000" height="5.250000" fill="#552D1B"   />
    <rect x="31.500000" y="115.500000" width="5.250000" height="5.250000" fill="#552D1B"   />
    <rect x="36.750000" y="115.500000" width="5.250000" height="5.250000" fill="#552D1B"   />
    <rect x="42.000000" y="115.500000" width="5.250000" height="5.250000" fill="#552D1B"   />
    <rect x="47.250000" y="115.500000" width="5.250000" height="5.250000" fill="#552D1B"   />
    <rect x="52.500000" y="115.500000" width="5.250000" height="5.250000" fill="#552D1B"   />
    <rect x="57.750000" y="115.500000" width="5.250000" height="5.250000" fill="#552D1B"   />
    <rect x="15.750000" y="120.750000" width="5.250000" height="5.250000" fill="#552D1B"   />
    <rect x="21.000000" y="120.750000" width="5.250000" height="5.250000" fill="#552D1B"   />
    <rect x="26.250000" y="120.750000" width="5.250000" height="5.250000" fill="#552D1B"   />
    <rect x="31.500000" y="120.750000" width="5.250000" height="5.250000" fill="#552D1B"   />
    <rect x="42.000000" y="120.750000" width="5.250000" height="5.250000" fill="#552D1B"   />
    <rect x="47.250000" y="120.750000" width="5.250000" height="5.250000" fill="#552D1B"   />
    <rect x="52.500000" y="120.750000" width="5.250000" height="5.250000" fill="#552D1B"   />
    <rect x="57.750000" y="120.750000" width="5.250000" height="5.250000" fill="#552D1B"   />
    <rect x="10.500000" y="126.000000" width="5.250000" height="5.250000" fill="#552D1B"   />
    <rect x="15.750000" y="126.000000" width="5.250000" height="5.250000" fill="#552D1B"   />
    <rect x="21.000000" y="126.000000" width="5.250000" height="5.250000" fill="#552D1B"   />
    <rect x="26.250000" y="126.000000" width="5.250000" height="5.250000" fill="#552D1B"   />
    <rect x="47.250000" y="126.000000" width="5.250000" height="5.250000" fill="#552D1B"   />
    <rect x="52.500000" y="126.000000" width="5.250000" height="5.250000" fill="#552D1B"   />
    <rect x="57.750000" y="126.000000" width="5.250000" height="5.250000" fill="#552D1B"   />
    <rect x="63.000000" y="126.000000" width="5.250000" height="5.250000" fill="#552D1B"   />
    <rect x="5.250000" y="131.250000" width="5.250000" height="5.250000" fill="#000000"   />
    <rect x="10.500000" y="131.250000" width="5.250000" height="5.250000" fill="#000000"   />
    <rect x="15.750000" y="131.250000" width="5.250000" height="5.250000" fill="#000000"   />
    <rect x="21.000000" y="131.250000" width="5.250000" height="5.250000" fill="#000000"   />
    <rect x="52.500000" y="131.250000" width="5.250000" height="5.250000" fill="#000000"   />
    <rect x="57.750000" y="131.250000" width="5.250000" height="5.250000" fill="#000000"   />
    <rect x="63.000000" y="131.250000" width="5.250000" height="5.250000" fill="#000000"   />
    <rect x="68.250000" y="131.250000" width="5.250000" height="5.250000" fill="#000000"   />
    <rect x="0.000000" y="136.500000" width="5.250000" height="5.250000" fill="#000000"   />
    <rect x="5.250000" y="136.500000" width="5.250000" height="5.250000" fill="#000000"   />
    <rect x="10.500000" y="136.500000" width="5.250000" height="5.250000" fill="#000000"   />
    <rect x="15.750000" y="136.500000" width="5.250000" height="5.250000" fill="#000000"   />
    <rect x="21.000000" y="136.500000" width="5.250000" height="5.250000" fill="#000000"   />
    <rect x="52.500000" y="136.500000" width="5.250000" height="5.250000" fill="#000000"   />
    <rect x="57.750000" y="136.500000" width="5.250000" height="5.250000" fill="#000000"   />
    <rect x="63.000000" y="136.500000" width="5.250000" height="5.250000" fill="#000000"   />
    <rect x="68.250000" y="136.500000" width="5.250000" height="5.250000" fill="#000000"   />
    <rect x="73.500000" y="136.500000" width="5.250000" height="5.250000" fill="#000000"   />
</svg>